<?xml version="1.0" encoding="utf-8"?>
<!-- Generator: Adobe Illustrator 25.2.1, SVG Export Plug-In . SVG Version: 6.00 Build 0)  -->
<svg version="1.1" id="Layer_1" xmlns="http://www.w3.org/2000/svg" xmlns:xlink="http://www.w3.org/1999/xlink" x="0px" y="0px"
	 viewBox="0 0 1500 1500" style="enable-background:new 0 0 1500 1500;" xml:space="preserve">
<style type="text/css">
	.st0{fill:#FFFFFF;}
</style>
<g>
	<g>
		<path class="st0" d="M918.6,184.7c0.9,0.2,1.8,0.6,2.8,0.7c19.8,2.4,37.2,10.2,51.9,23.7c12.4,11.4,20.4,25.4,24.4,41.7
			c7.2,29.2-0.3,60.4-19.4,83.1c-9.9,11.8-18.8,24.3-25.8,38.1c-7,13.5-12.1,27.7-14.7,42.7c-4.5,25.9-1.4,50.9,9.5,74.8
			c5.3,11.6,12,22.4,20.2,32.2c11.6,13.7,25.9,23.9,42.2,31.4c13.5,6.2,27.6,10.2,42.3,12.4c6.4,0.9,12.7,1.4,19.1,1.8
			c3.9,0.3,7.7,0,11.6-0.6c10.2-1.5,20.3-3.4,30.1-6.6c19.2-6.1,36-16,49.7-30.8c10.2-11.1,22.8-18.2,37.2-22.1
			c11.4-3.1,23.1-4,34.9-3.1c13,1,25.5,4.1,37.4,9.6c16.2,7.4,27.9,19.3,35.7,35.2c4.8,9.9,7.6,20.4,8.9,31.3
			c1.1,8.9,1,17.9,0.6,26.8c-0.7,15.3-6,28.8-15.6,40.6c-13.6,16.6-30.7,27.9-51.5,33.4c-7.9,2.1-16,2.6-24.1,2.2
			c-21.3-1-39.9-8.9-56.5-22.1c-4.8-3.8-9.5-7.8-14.4-11.6c-12.2-9.4-25.2-17.5-39.4-23.7c-11.4-4.9-23.2-8.4-35.6-9.6
			c-12.9-1.3-25.6-0.3-38.1,3c-14.3,3.8-27.5,9.9-40,17.6c-10.3,6.3-20.1,13.5-29.3,21.3c-8.9,7.4-18.6,13.5-29.4,17.7
			c-13.1,5.1-26.6,7.2-40.6,6c-15.1-1.3-29-6.4-41.5-15.1c-17.3-12.1-29.7-28-36-48.3c-6.2-20.1-4.8-39.9,3-59.3
			c4.2-10.5,10.2-20,17.7-28.6c6.7-7.8,13-15.9,18.6-24.6c8.3-12.9,14.9-26.6,18.9-41.4c3.5-12.9,4.8-25.9,3.8-39.2
			c-1.1-14.7-5-28.8-11-42.3c-7-15.7-16.3-29.9-27-43.3c-1.1-1.4-2.3-2.8-3.4-4.2c-10.8-13.4-18.5-28.4-21.8-45.4
			c-4.9-25.1-0.7-48.5,14.6-69.3c13.4-18.2,31.5-29.3,53.5-34.2c3.3-0.7,6.7-1.1,10-1.6c0.7-0.1,1.4-0.4,2-0.6
			C908.9,184.7,913.7,184.7,918.6,184.7z"/>
		<path class="st0" d="M183.7,587.1c1.1-1,1.2-2.3,1.3-3.6c1.2-12.3,4.8-23.9,10.9-34.7c13.3-23.5,33.3-37.9,59.8-43
			c22.8-4.4,44.5-0.6,65.1,10.1c5.5,2.8,10.5,6.5,15.2,10.5c3.7,3.1,7.4,6.2,10.9,9.6c11,10.5,24,17.9,38.1,23.3
			c12,4.6,24.4,7.8,37.3,8.9c16.4,1.4,32.6-0.3,48.4-5.3c14.1-4.4,27.2-10.7,39.5-18.9c4.9-3.3,9.8-6.7,14.7-10.1
			c1-0.7,1.9-1.5,2.6-2.4c11.2-14.5,21.4-29.6,29.1-46.3c4.6-10.2,8.1-20.7,10-31.7c2.2-13,2-26-0.6-39c-2.8-13.8-7.9-26.6-14.5-39
			c-7.1-13.4-15.7-25.8-25-37.8c-2.6-3.4-5.2-6.7-7.6-10.2c-7.8-11.6-13.1-24.2-15.6-38c-6-34.1,7.3-66.6,34.9-86.8
			c12.4-9.1,26.4-14.6,41.7-16.6c21.4-2.8,41.5,1.1,59.9,12.5c22.5,13.9,35.9,34.2,39.8,60.3c4,27-3.1,51.3-19.1,73.1
			c-2.6,3.6-5.6,7-8.3,10.5c-9.6,12.4-18.1,25.4-24.7,39.6c-5.2,11-9,22.5-10.9,34.5c-2.7,16.4-1.5,32.6,3.1,48.5
			c3.9,13.3,9.8,25.7,17.1,37.5c6.6,10.6,14,20.6,22.1,30.1c7.4,8.7,13.3,18.2,17.1,28.9c8.3,23.3,6.5,46.1-4,68.4
			c-3.6,7.6-8.1,14.6-13.5,21.1c-1.5,1.8-3.1,3.4-4.7,5c-11.6,11.2-24.7,19.9-40.2,24.5c-27.8,8.4-52.8,2.8-75-15.7
			c-2.5-2.1-4.8-4.4-7.2-6.7c-20.1-19.5-43.8-32-71.2-37.5c-13.7-2.8-27.6-3.3-41.5-1.9c-33.3,3.5-62,17-86,40.4
			c-11.2,10.8-24.1,18.6-39.3,22.2c-18.6,4.5-36.8,2.9-54.3-5.1c-28.7-13.1-46.5-35.1-53-66.1c-0.5-2.4-0.8-4.8-1-7.2
			c-0.2-1.6-0.4-3.1-1.4-4.4C183.7,594.8,183.7,590.9,183.7,587.1z"/>
		<path class="st0" d="M1318.7,917.6c-0.2,1.1-0.5,2.1-0.6,3.2c-0.4,13.8-4.5,26.5-11.6,38.1c-11.5,18.8-27.7,32.3-48.7,39.3
			c-22.8,7.6-45.1,5.8-66.7-4.5c-4.6-2.2-8.9-4.8-13.3-7.4c-3.9-2.3-7.2-5.3-10.4-8.4c-9.1-8.8-19-16.5-29.8-23
			c-12.9-7.7-26.7-13.1-41.4-15.9c-10.4-2-20.8-2.7-31.4-2.1c-18.2,1.1-35.6,5.5-52.5,12c-1.2,0.5-2.4,1.1-3.5,1.8
			c-15.9,10.6-30.4,22.8-42.7,37.5c-11.2,13.4-19.9,28.2-25.3,44.9c-4.9,15.3-6.5,30.9-4.9,46.9c1.7,17.8,7.2,34.5,15.3,50.4
			c6.9,13.7,15.5,26.2,25.3,38c5.5,6.6,10.5,13.6,14.4,21.3c7.9,15.7,11.3,32.4,9.6,49.9c-1.9,20.1-10,37.5-23.7,52.2
			c-13.8,14.8-30.8,23.6-50.7,26.7c-1.8,0.3-3.6,0.4-5.4,0.7c-0.7,0.1-1.4,0.4-2,0.6c-4.8,0-9.7,0-14.5,0c-0.8-0.2-1.6-0.6-2.4-0.6
			c-38.1-3.8-69.4-31.3-77.5-68.6c-6.4-29.6,0.8-56.1,19.7-79.5c3.4-4.2,7.1-8.3,10.4-12.6c10.1-12.9,18.6-26.8,24.7-42.1
			c4.3-10.7,7.1-21.9,8.2-33.4c1.5-16.2-0.3-32.1-5.3-47.6c-5.1-16-12.9-30.8-22.6-44.5c-4.1-5.8-8.5-11.4-13-17
			c-5.8-7.1-10.9-14.5-15-22.6c-7.4-14.8-10.6-30.3-9.1-46.8c1.1-12.2,5-23.6,11.1-34.2c5.5-9.5,12.5-17.8,20.8-25
			c2.2-1.9,4.4-3.7,6.1-6.1c1.6-2.3,4.1-3.4,6.8-3.7c1.7-0.2,3.2-0.8,4.7-1.6c9.3-5.1,19.2-8.7,29.6-10.5
			c15.3-2.6,30.4-1.6,44.8,4.7c8.7,3.8,16.2,9.2,22.6,16.1c20.3,21.8,45.3,34.6,74.4,40c12.9,2.4,26,3.1,39,1.9
			c28.4-2.5,54.2-11.9,76.7-29.7c4.7-3.7,9-7.7,13.1-12c12.3-12.9,27.5-19.9,45-22c17.6-2.1,34.5,0.9,50.5,8.4
			c14.9,6.9,27.3,16.9,36.4,30.8c7.4,11.2,11.8,23.5,13.9,36.7c0.3,2,0.2,4.1,0.4,6.2c0.1,1.2,0.4,2.4,0.6,3.5
			C1318.7,911.3,1318.7,914.4,1318.7,917.6z"/>
		<path class="st0" d="M584.5,1320c-0.8-0.2-1.6-0.5-2.4-0.6c-18.6-2-35.2-8.7-49.2-21.2c-16.6-14.8-27.1-33.2-30.3-55.2
			c-4-27.9,3.9-52.2,23.6-72.4c8.9-9.2,16.9-19,23.2-30.1c9.2-16.1,15-33.3,16.9-51.7c4.2-39.2-5.9-74.4-31.1-104.8
			c-16.9-20.4-38.5-33.9-63.8-41.7c-7.3-2.2-14.8-3.7-22.4-4.5c-5-0.6-10.1-1.3-15.1-1.9c-1.3-0.2-2.7-0.2-4-0.2
			c-18.1,0.2-35.2,4.3-51.5,12c-13.2,6.2-25.2,14.4-36.4,23.7c-3.2,2.6-6.2,5.4-9.4,8c-6.4,5.3-13.2,9.8-20.6,13.5
			c-15.2,7.7-31.3,10.6-48.2,8.2c-24.1-3.3-44.3-14-60.2-32.6c-9.1-10.6-15-22.8-17.6-36.5c-0.6-3-0.9-6-1.1-9
			c-0.2-2.2-0.5-4.3-1.4-6.3c0-2.2,0-4.4,0-6.5c0.8-2,1.2-4.1,1.4-6.3c3.8-44.2,35.2-72,68.5-79.1c27.1-5.7,52.1-0.7,74.4,16.3
			c2.2,1.7,4.3,3.6,6.3,5.5c10.2,9.4,21.2,17.7,33.3,24.3c14.4,7.9,29.7,13.1,45.9,15.1c22.3,2.8,44.2,1.2,65.5-6.3
			c16.7-5.9,31.4-15,44.6-26.6c5.5-4.8,11.1-9.3,17.2-13.3c10.8-6.9,22.3-12.1,34.9-14.8c23.4-5,45.2-0.9,65.3,12.1
			c12.8,8.3,23.2,18.9,30.4,32.5c4.9,9.2,7.8,19,9,29.3c2.2,20.4-2.4,39.4-12,57.3c-3.9,7.3-8.6,14-13.9,20.3
			c-8.5,10-16,20.6-22.3,32.2c-6.9,12.8-11.9,26.2-14.6,40.5c-2,10.9-2.5,21.9-1.5,32.9c2,21.6,9.7,41.3,21,59.7
			c5.7,9.3,12.3,18,19.5,26.2c7.9,9,14.1,19,18.3,30.2c4.6,12.3,6.8,25,6,38.1c-2.4,41.3-30.4,71.6-66.6,80.6c-4.5,1.1-9,2-13.6,2.3
			c-0.8,0.1-1.6,0.4-2.4,0.6C593.7,1320,589.1,1320,584.5,1320z"/>
	</g>
	<path class="st0" d="M596.3,776.1c-21.2,0.2-39.8,5-57.6,13.2c-15.8,7.3-30.1,17-43.4,28.2c-7.1,6.1-14.7,11.4-23.2,15.5
		c-15.5,7.5-31.9,10.8-49,8.8c-26.4-3-47.2-15.8-62.2-37.6c-8.6-12.5-13.8-26.4-15.7-41.3c-3.9-30,8.1-60.6,30.7-79.2
		c11.3-9.3,24.3-15.3,38.5-18.8c9.6-2.4,19.4-3,29.2-2.1c15.8,1.6,30,7.3,42.5,17.1c2.9,2.3,5.8,4.8,8.6,7.2
		c7.8,6.5,15.7,13,24,18.7c9.1,6.3,18.7,11.6,29.2,15.3c9.8,3.4,20,5.8,30.3,7c26,3,50.5-1.9,73.9-13.5
		c12.8-6.4,24.6-14.5,35.6-23.6c0.9-0.8,1.8-1.7,2.5-2.6c9.1-12.3,17.4-25,24.1-38.8c5.4-11.1,9.6-22.7,12-34.9
		c3.2-16.6,2.4-33-2-49.2c-3.3-12.1-8.4-23.4-14.5-34.3c-6.9-12.3-15-23.7-23.8-34.7c-7.8-9.7-14-20.3-18.3-32
		c-4.9-13.5-6.9-27.5-5.3-41.8c2.2-20.2,10.7-37.5,25.2-51.8c10.5-10.3,22.8-17.5,37.2-20.8c8.3-1.9,16.7-2.8,25.2-2.7
		c12.8,0.1,25.3,2.3,37.3,6.6c24.4,8.8,40.8,25.7,49.1,50c9.7,28.2,6.1,55.1-9.9,80.3c-3.7,5.8-8.1,11.2-12.6,16.4
		c-5,5.9-9.9,11.9-14.2,18.4c-10.5,15.7-17.8,32.7-21.5,51.2c-2.3,11.8-3.1,23.7-2.1,35.8c2.8,32.1,16.1,59.2,38.4,82.2
		c16.8,17.3,36.7,29.4,60,36c14.9,4.3,30.2,5.8,45.6,4.5c27.4-2.2,51.9-12.1,73.6-28.8c3.2-2.4,6.2-5,9.2-7.7
		c7.5-6.5,15.4-12.6,24-17.5c9-5.1,18.5-8.9,28.7-10.8c7.9-1.4,15.9-1.6,23.8-0.7c8.1,0.9,16,2.8,23.6,5.6
		c20.8,7.8,36,21.8,45.8,41.7c5.8,11.7,9.2,24.2,10.6,37.2c0.8,8.1,0,16.2-1.9,24.1c-4.2,17.7-12.7,33.1-25.6,46
		c-11.4,11.3-25.2,18.4-40.7,22c-24.3,5.7-47.1,1.6-68.3-11.3c-4.1-2.5-8-5.4-11.8-8.4c-10.6-8.4-21.4-16.6-33-23.7
		c-10.7-6.5-21.8-12.1-33.7-15.9c-12.5-3.9-25.3-5.5-38.3-4.5c-10.9,0.8-21.5,3.2-31.9,6.7c-12.3,4.1-24.1,9.4-35.6,15.3
		c-3.7,1.9-7.3,3.8-10.9,5.8c-1.2,0.7-2.5,1.5-3.4,2.6c-10.9,11.9-20.9,24.5-29.2,38.4c-6.5,10.8-11.8,22.2-15.3,34.4
		c-3.3,11.4-4.9,23-4.5,34.8c0.5,13.4,3.3,26.4,8.1,38.9c4.7,12.3,10.9,23.7,18.1,34.7c5.5,8.4,11.6,16.4,18,24.1
		c11.4,13.7,18.2,29.6,20.9,47.2c2.2,14.2,1.4,28.2-2.9,42c-3.9,12.3-10.6,22.7-20.5,31c-10.7,9-22.2,16.7-35.2,22
		c-9.8,4-20,6.3-30.7,6.7c-10.8,0.3-21.3-1.4-31.2-5.6c-22.4-9.5-39.3-25-49.8-47c-6.1-12.7-8.7-26.1-8.1-40.2
		c0.8-18.7,7-35.5,18.1-50.5c1.9-2.5,3.9-5,5.9-7.4c13-15.4,23.7-32.1,31.4-50.7c4.7-11.4,8-23.1,9.6-35.3
		c4.4-34.6-4-65.9-25.8-93.2c-17.2-21.5-38.9-37.2-64.6-47.2C621.2,777.8,608.5,776.3,596.3,776.1z"/>
</g>
<g>
	<path class="st0" d="M1290.5,1502.3H211.9c-116.2,0-210.7-94.5-210.7-210.7V213C1.2,96.8,95.7,2.3,211.9,2.3h1078.5
		c116.2,0,210.7,94.5,210.7,210.7v1078.5C1501.2,1407.8,1406.7,1502.3,1290.5,1502.3z M211.9,83.2c-71.6,0-129.8,58.3-129.8,129.8
		v1078.5c0,71.6,58.3,129.8,129.8,129.8h1078.5c71.6,0,129.8-58.2,129.8-129.8V213c0-71.6-58.3-129.8-129.8-129.8H211.9z"/>
</g>
</svg>
