<?xml version="1.0" encoding="utf-8"?>
<!-- Generator: Adobe Illustrator 25.2.1, SVG Export Plug-In . SVG Version: 6.00 Build 0)  -->
<svg version="1.1" id="Layer_1" xmlns="http://www.w3.org/2000/svg" xmlns:xlink="http://www.w3.org/1999/xlink" x="0px" y="0px"
	 viewBox="0 0 1500 1500" style="enable-background:new 0 0 1500 1500;" xml:space="preserve">
<style type="text/css">
	.st0{opacity:0.3;fill:url(#Path_2_);enable-background:new    ;}
	.st1{opacity:0.3;fill:url(#Path-2_2_);enable-background:new    ;}
	.st2{opacity:0.3;fill:url(#Path-3_2_);enable-background:new    ;}
	.st3{fill:#FFFFFF;}
	.st4{opacity:0.3;fill:url(#Path-5_2_);enable-background:new    ;}
	.st5{fill:#233DFF;}
	.st6{opacity:0.3;fill:url(#Path-7_2_);enable-background:new    ;}
	.st7{opacity:0.3;fill:url(#Path-8_2_);enable-background:new    ;}
	.st8{opacity:0.3;fill:url(#Path-10_2_);enable-background:new    ;}
	.st9{opacity:0.15;fill:#FFFFFF;enable-background:new    ;}
	.st10{opacity:0.2;fill:#FFFFFF;enable-background:new    ;}
	.st11{opacity:0.2;fill:url(#Path-17_2_);enable-background:new    ;}
	.st12{opacity:0.2;fill:url(#Path-21_2_);enable-background:new    ;}
	.st13{opacity:0.2;fill:url(#Path-25_2_);enable-background:new    ;}
	.st14{opacity:0.4;fill:#FFFFFF;enable-background:new    ;}
</style>
<linearGradient id="Path_2_" gradientUnits="userSpaceOnUse" x1="113.3456" y1="1111.6492" x2="110.221" y2="1110.697" gradientTransform="matrix(80 0 0 -454.7914 -8300.2002 505718.25)">
	<stop  offset="0" style="stop-color:#FFFFFF"/>
	<stop  offset="1" style="stop-color:#FFFFFF;stop-opacity:0"/>
</linearGradient>
<path id="Path_1_" class="st0" d="M594.4,29.9c9.6,5.5,17.2,18.9,17.2,29.9v294.3l87.3,50.4v303.6c0,11-7.8,15.4-17.2,9.9
	c-9.6-5.5-17.2-18.9-17.2-29.9V424.4l-87.4-50.3V39.8C577.1,28.9,584.8,24.5,594.4,29.9z"/>
<linearGradient id="Path-2_2_" gradientUnits="userSpaceOnUse" x1="110.6939" y1="1110.1306" x2="112.6713" y2="1111.2915" gradientTransform="matrix(79.9 0 0 -235.6915 -8257.7998 262904.8125)">
	<stop  offset="0" style="stop-color:#FFFFFF"/>
	<stop  offset="1" style="stop-color:#FFFFFF;stop-opacity:0"/>
</linearGradient>
<path id="Path-2_1_" class="st1" d="M642,1308.4c9.6,5.5,17.2,1.1,17.2-9.9v-220.6l87.3,50.4V983.9c0-11-7.8-24.4-17.2-29.9
	c-9.6-5.5-17.2-1.1-17.2,9.9v104.7l-87.3-50.4v260.4C624.7,1289.5,632.5,1302.9,642,1308.4z"/>
<linearGradient id="Path-3_2_" gradientUnits="userSpaceOnUse" x1="119.2034" y1="1111.7213" x2="109.6088" y2="1110.6731" gradientTransform="matrix(22.6 0 0 -357.8914 -1809.4 398204.1875)">
	<stop  offset="0" style="stop-color:#FFFFFF"/>
	<stop  offset="1" style="stop-color:#FFFFFF;stop-opacity:0"/>
</linearGradient>
<path id="Path-3_1_" class="st2" d="M776.2,246c9.6,5.5,17.2,18.9,17.2,29.9v500.8c0,11-7.8,15.4-17.2,9.9
	c-9.6-5.5-17.2-18.9-17.2-29.9V255.9C759,244.9,766.7,240.5,776.2,246z"/>
<path id="Path-4_1_" class="st3" d="M678.4,1283.3c0,30.2-17.7,44.5-39.5,31.8c-21.8-12.5-39.5-47.2-39.5-77.4s17.7-44.5,39.5-31.8
	C660.7,1218.4,678.4,1253.1,678.4,1283.3z"/>
<linearGradient id="Path-5_2_" gradientUnits="userSpaceOnUse" x1="114.6635" y1="1112.5306" x2="112.0782" y2="1110.8563" gradientTransform="matrix(79.9 0 0 -213.5915 -8100.9004 238051.7344)">
	<stop  offset="0" style="stop-color:#FFFFFF"/>
	<stop  offset="1" style="stop-color:#FFFFFF;stop-opacity:0"/>
</linearGradient>
<path id="Path-5_1_" class="st4" d="M968.3,497c-9.6-5.5-17.2-1.1-17.2,9.9v148.7l-87.3-50.4v182.7c0,11,7.8,24.4,17.2,29.9
	c9.6,5.5,17.2,1.1,17.2-9.9V664.9l87.3,50.4V526.9C985.5,515.9,977.7,502.5,968.3,497z"/>
<path id="Path-6_1_" class="st5" d="M1007,549.6c0,29.9-17.5,43.9-39,31.5c-21.5-12.5-39-46.6-39-76.5s17.4-43.9,39-31.5
	C989.6,485.6,1007,519.7,1007,549.6z"/>
<linearGradient id="Path-7_2_" gradientUnits="userSpaceOnUse" x1="113.2301" y1="1110.6285" x2="111.5071" y2="1110.6285" gradientTransform="matrix(200 0 0 -206.0915 -21453.8008 230056.4062)">
	<stop  offset="0" style="stop-color:#FFFFFF"/>
	<stop  offset="1" style="stop-color:#FFFFFF;stop-opacity:0"/>
</linearGradient>
<path id="Path-7_1_" class="st6" d="M1135.3,1310.1c0-11-7.8-24.4-17.2-29.9l-135.6-78.3v-113.5l-134.7-77.7
	c-9.6-5.5-17.2-1.1-17.2,9.9c0,11,7.8,24.4,17.2,29.9l100.2,57.9v113.5l170.2,98.1C1127.6,1325.5,1135.3,1321.1,1135.3,1310.1z"/>
<linearGradient id="Path-8_2_" gradientUnits="userSpaceOnUse" x1="111.4288" y1="1109.9498" x2="118.3575" y2="1110.9675" gradientTransform="matrix(22.6 0 0 -266.1915 -1788.5 296869.3125)">
	<stop  offset="0" style="stop-color:#FFFFFF"/>
	<stop  offset="1" style="stop-color:#FFFFFF;stop-opacity:0"/>
</linearGradient>
<path id="Path-8_1_" class="st7" d="M808,1475.2c-9.6-5.5-17.2-18.9-17.2-29.9v-361.1c0-11,7.8-15.4,17.2-9.9
	c9.6,5.5,17.2,18.9,17.2,29.9v361.1C825.2,1476.3,817.5,1480.7,808,1475.2z"/>
<path id="Path-9_1_" class="st5" d="M1156.3,1323.2c0,30.2-17.7,44.5-39.5,31.8c-21.8-12.5-39.5-47.2-39.5-77.4s17.7-44.5,39.5-31.8
	C1138.6,1258.3,1156.3,1293,1156.3,1323.2z"/>
<linearGradient id="Path-10_2_" gradientUnits="userSpaceOnUse" x1="112.1114" y1="1111.3539" x2="110.7586" y2="1110.3895" gradientTransform="matrix(162.8 0 0 -395.6 -17664.7012 440409.25)">
	<stop  offset="0" style="stop-color:#FFFFFF"/>
	<stop  offset="1" style="stop-color:#FFFFFF;stop-opacity:0"/>
</linearGradient>
<path id="Path-10_1_" class="st8" d="M312.4,717.2l248,143.2v459.5l-248-143.2V717.2z"/>
<path id="Path-11_1_" class="st9" d="M351.7,1009.4l147.8,85.3v18.1l-147.8-85.3V1009.4z"/>
<path id="Path-12_1_" class="st9" d="M367.1,1054l117.2,67.6v18.1l-117.2-67.6V1054z"/>
<path id="Path-13_1_" class="st3" d="M407,1135.8l-172.5-99.6v51.3l172.6,99.6L407,1135.8z"/>
<path id="Path-14_1_" class="st10" d="M490.2,906.2l-38.5,30.5l-25.9-33.2L392,932.7l-13.4-9.8l49.8-41.9l25.3,33.2l27.9-20.7
	L490.2,906.2z"/>
<path id="Path-15_1_" class="st3" d="M519.2,905.5c0,17.2-10.1,25.3-22.4,18.1c-12.3-7.2-22.4-26.8-22.4-44s10.1-25.3,22.4-18.1
	C509.1,868.6,519.2,888.4,519.2,905.5z"/>
<path id="Path-16_1_" class="st3" d="M403.7,938.7c0,17.2-10.1,25.3-22.4,18.1c-12.3-7.2-22.4-26.8-22.4-44s10.1-25.3,22.4-18.1
	C393.6,901.8,403.7,921.5,403.7,938.7z"/>
<linearGradient id="Path-17_2_" gradientUnits="userSpaceOnUse" x1="112.6973" y1="1111.2391" x2="112.353" y2="1110.6969" gradientTransform="matrix(154.8 0 0 -170 -16372 189875.4531)">
	<stop  offset="0" style="stop-color:#FFFFFF"/>
	<stop  offset="1" style="stop-color:#FFFFFF;stop-opacity:0"/>
</linearGradient>
<path id="Path-17_1_" class="st11" d="M1164.8,1017.6L929,881.4v122.8l235.8,136.2V1017.6z"/>
<path id="Path-18_1_" class="st9" d="M989.3,946l71,41v14.8l-71-41.1V946z"/>
<path id="Path-19_1_" class="st9" d="M989.5,975.5l151.1,87.1v14.9l-151.1-87.1V975.5z"/>
<path id="Path-20_1_" class="st5" d="M977,950.2c0,10.1-5.9,14.9-13.4,10.7c-7.5-4.3-13.4-16-13.4-26.1s5.9-14.9,13.4-10.7
	C971,928.5,977,940.2,977,950.2z"/>
<linearGradient id="Path-21_2_" gradientUnits="userSpaceOnUse" x1="111.3542" y1="1111.9982" x2="111.0099" y2="1111.4558" gradientTransform="matrix(154.8 0 0 -170 -16769.2012 189628.9531)">
	<stop  offset="0" style="stop-color:#FFFFFF"/>
	<stop  offset="1" style="stop-color:#FFFFFF;stop-opacity:0"/>
</linearGradient>
<path id="Path-21_1_" class="st12" d="M559.7,642.1L323.9,505.9v122.8l235.8,136.2V642.1z"/>
<path id="Path-22_1_" class="st9" d="M384.2,570.5l71,41v14.8l-71-41V570.5z"/>
<path id="Path-23_1_" class="st9" d="M384.3,600l151.1,87.1v14.9l-151.1-87.1V600z"/>
<path id="Path-24_1_" class="st5" d="M371.9,574.7c0,10.1-5.9,14.9-13.4,10.7s-13.4-16-13.4-26.1c0-10.1,5.9-14.9,13.4-10.7
	C365.8,552.9,371.9,564.7,371.9,574.7z"/>
<linearGradient id="Path-25_2_" gradientUnits="userSpaceOnUse" x1="112.1596" y1="1111.7766" x2="111.8153" y2="1110.4711" gradientTransform="matrix(128 0 0 -192.3094 -13563.0996 214546.2031)">
	<stop  offset="0" style="stop-color:#FFFFFF"/>
	<stop  offset="1" style="stop-color:#FFFFFF;stop-opacity:0"/>
</linearGradient>
<path id="Path-25_1_" class="st13" d="M871.2,909c0,74.6-43.7,110-97.5,78.9c-53.9-31.1-97.5-116.8-97.5-191.5s43.7-110,97.5-78.9
	C827.7,748.5,871.2,834.3,871.2,909z"/>
<path id="Shape" class="st14" d="M728.3,1018.3c-53.8-31.1-97.5-116.8-97.5-191.5s43.6-110,97.5-78.9
	c53.8,31.1,97.5,116.8,97.5,191.5c0,56.3-24.7,90.2-60,90.2C754.3,1029.6,741.6,1026,728.3,1018.3z"/>
<g>
	<g>
		<path class="st3" d="M725,831c0.1,0,0.1,0,0.2,0c1.4-0.2,2.8,0.1,4.1,1c1.1,0.7,2,1.7,2.6,3c1.2,2.3,1.4,5,0.6,7.2
			c-0.4,1.2-0.7,2.4-0.9,3.6c-0.2,1.2-0.2,2.5,0,3.8c0.3,2.2,1.1,4.2,2.4,6c0.6,0.9,1.3,1.6,2.1,2.3c1.1,0.9,2.3,1.5,3.6,1.8
			c1.1,0.3,2.1,0.3,3.2,0.2c0.5,0,0.9-0.1,1.3-0.2c0.3-0.1,0.5-0.1,0.8-0.3c0.7-0.3,1.3-0.7,1.9-1.1c1.2-0.9,2.1-2,2.7-3.5
			c0.4-1.1,1.1-1.9,2-2.5c0.7-0.5,1.5-0.8,2.3-0.9c0.9-0.2,1.8-0.1,2.8,0.1c1.3,0.3,2.3,1.1,3.2,2.2c0.6,0.7,1,1.5,1.3,2.4
			c0.3,0.7,0.5,1.5,0.7,2.2c0.3,1.3,0.3,2.5-0.1,3.6c-0.5,1.6-1.5,2.9-2.7,3.7c-0.5,0.3-1,0.5-1.6,0.6c-1.5,0.3-2.9,0-4.4-0.7
			c-0.4-0.2-0.8-0.5-1.3-0.7c-1-0.5-2.1-1-3.2-1.2c-0.9-0.2-1.8-0.2-2.6-0.1c-0.9,0.1-1.8,0.5-2.5,1c-0.9,0.6-1.6,1.3-2.3,2.2
			c-0.6,0.7-1.1,1.5-1.5,2.3c-0.4,0.8-1,1.5-1.6,2c-0.8,0.7-1.6,1.1-2.6,1.3c-1.1,0.2-2.1,0-3.2-0.5c-1.5-0.7-2.7-1.7-3.6-3.3
			c-0.9-1.5-1.2-3.2-1.2-4.9c0-0.9,0.2-1.8,0.5-2.7c0.3-0.8,0.5-1.6,0.7-2.4c0.3-1.2,0.4-2.5,0.3-3.8c-0.1-1.1-0.3-2.2-0.6-3.3
			c-0.4-1.2-1-2.3-1.7-3.3c-0.8-1.2-1.8-2.2-2.8-3.1c-0.1-0.1-0.2-0.2-0.3-0.3c-1-0.9-1.9-2-2.5-3.3c-0.9-2-1.2-4-0.6-6
			c0.5-1.8,1.5-3,2.9-3.8c0.2-0.1,0.4-0.2,0.6-0.3c0,0,0.1-0.1,0.1-0.1C724.4,831.2,724.7,831.1,725,831z"/>
		<path class="st3" d="M684.2,878.2c0.1-0.1,0-0.2,0-0.3c-0.2-1-0.2-2.1-0.1-3.1c0.4-2.2,1.4-3.8,3.1-4.7c1.5-0.8,3-0.9,4.7-0.4
			c0.4,0.1,0.9,0.3,1.3,0.6c0.3,0.2,0.6,0.4,1,0.6c1,0.7,2,1,3.1,1.2c0.9,0.2,1.8,0.2,2.7,0c1.2-0.2,2.2-0.6,3.2-1.4
			c0.9-0.6,1.6-1.4,2.3-2.3c0.3-0.4,0.5-0.7,0.8-1.1c0.1-0.1,0.1-0.2,0.1-0.3c0.4-1.4,0.8-2.8,0.9-4.4c0.1-0.9,0.1-1.9,0-2.8
			c-0.1-1.1-0.5-2.2-0.9-3.2c-0.5-1.1-1.2-2-1.9-2.9c-0.8-1-1.7-1.8-2.6-2.6c-0.3-0.2-0.5-0.5-0.7-0.7c-0.8-0.8-1.5-1.7-1.9-2.8
			c-1.2-2.7-1-5.6,0.4-7.8c0.6-1,1.5-1.7,2.5-2.2c1.4-0.6,2.9-0.7,4.4-0.1c1.9,0.7,3.2,2.1,4.1,4.2c0.9,2.1,1,4.3,0.4,6.4
			c-0.1,0.3-0.2,0.7-0.3,1c-0.4,1.2-0.6,2.4-0.8,3.7c-0.1,1-0.1,2,0,3c0.2,1.4,0.6,2.7,1.3,3.9c0.6,1,1.3,1.9,2,2.8
			c0.7,0.8,1.4,1.4,2.2,2.1c0.7,0.6,1.3,1.2,1.8,2.1c1.1,1.8,1.5,3.7,1.3,5.7c-0.1,0.7-0.2,1.4-0.4,2c-0.1,0.2-0.1,0.3-0.2,0.5
			c-0.5,1.1-1.2,2.1-2.2,2.8c-1.7,1.2-3.5,1.2-5.5,0.1c-0.2-0.1-0.4-0.3-0.6-0.4c-1.8-1.2-3.7-1.8-5.7-1.7c-1,0-2,0.2-2.9,0.6
			c-2.2,0.9-3.8,2.6-4.9,5c-0.5,1.1-1.2,2-2.2,2.6c-1.2,0.7-2.4,0.9-3.8,0.6c-2.3-0.5-4-2-5.1-4.4c-0.1-0.2-0.2-0.4-0.2-0.6
			c0-0.1-0.1-0.2-0.2-0.3C684.4,878.8,684.3,878.5,684.2,878.2z"/>
		<path class="st3" d="M769.1,883.9c0,0.1,0,0.2,0,0.3c0.3,1.1,0.3,2.3,0.1,3.4c-0.4,1.8-1.1,3.2-2.4,4.2c-1.4,1.1-2.9,1.3-4.6,0.9
			c-0.4-0.1-0.7-0.2-1.1-0.4c-0.3-0.1-0.6-0.3-0.9-0.5c-0.8-0.6-1.7-1-2.6-1.3c-1.1-0.4-2.1-0.6-3.2-0.5c-0.8,0-1.5,0.2-2.2,0.4
			c-1.2,0.4-2.3,1.1-3.3,2c-0.1,0.1-0.1,0.1-0.2,0.2c-0.8,1.2-1.5,2.5-2,3.9c-0.5,1.3-0.7,2.7-0.7,4.2c0,1.4,0.3,2.7,0.7,4
			c0.5,1.4,1.3,2.7,2.2,3.9c0.8,1,1.7,1.9,2.6,2.6c0.5,0.4,1,0.9,1.5,1.5c0.9,1.1,1.5,2.5,1.8,3.9c0.3,1.7,0.2,3.3-0.4,4.8
			c-0.6,1.5-1.6,2.5-2.8,3.2c-0.1,0.1-0.2,0.1-0.4,0.2c0,0-0.1,0.1-0.1,0.1c-0.3,0.1-0.7,0.2-1,0.3c-0.1,0-0.1,0-0.2,0
			c-2.7,0.4-5.5-1.3-6.9-4.2c-1.1-2.3-1.2-4.6-0.5-6.9c0.1-0.4,0.3-0.8,0.4-1.2c0.4-1.3,0.7-2.6,0.7-3.9c0-1,0-1.9-0.2-2.9
			c-0.3-1.4-0.8-2.6-1.5-3.8c-0.7-1.2-1.6-2.3-2.6-3.2c-0.4-0.4-0.8-0.8-1.3-1.2c-0.6-0.5-1.1-1-1.5-1.6c-0.8-1.1-1.4-2.3-1.7-3.7
			c-0.2-1-0.2-2,0-3c0.2-0.9,0.4-1.7,0.8-2.5c0.1-0.2,0.2-0.4,0.3-0.6c0.1-0.2,0.2-0.4,0.4-0.4c0.1-0.1,0.2-0.1,0.3-0.2
			c0.5-0.6,1.1-1.1,1.8-1.4c1-0.5,2-0.7,3.2-0.5c0.7,0.1,1.3,0.4,1.9,0.9c1.9,1.4,3.9,2,6,1.9c0.9,0,1.8-0.2,2.7-0.6
			c1.9-0.7,3.4-2,4.5-3.9c0.2-0.4,0.4-0.8,0.6-1.2c0.5-1.3,1.4-2.2,2.6-2.7c1.2-0.5,2.4-0.6,3.6-0.3c1.2,0.3,2.2,0.9,3.2,1.8
			c0.8,0.8,1.3,1.7,1.8,2.8c0.1,0.2,0.1,0.3,0.2,0.5c0,0.1,0.1,0.2,0.1,0.3C769,883.3,769,883.6,769.1,883.9z"/>
		<path class="st3" d="M728.3,930.9c-0.1,0-0.1,0-0.2,0c-1.3,0.2-2.6,0-3.8-0.8c-1.5-0.9-2.6-2.2-3.3-4c-0.9-2.2-0.9-4.4-0.1-6.4
			c0.4-0.9,0.7-1.9,0.9-2.9c0.3-1.5,0.3-3,0-4.6c-0.6-3.3-2.1-6-4.5-8c-1.6-1.4-3.4-2.1-5.3-2.2c-0.5,0-1.1,0-1.6,0
			c-0.4,0-0.7,0.1-1.1,0.1c-0.1,0-0.2,0-0.3,0.1c-1.2,0.4-2.3,1-3.2,2c-0.8,0.8-1.4,1.7-1.9,2.6c-0.2,0.3-0.3,0.6-0.5,0.8
			c-0.3,0.6-0.7,1.1-1.1,1.5c-0.9,0.9-1.9,1.5-3.1,1.6c-1.7,0.2-3.3-0.3-4.8-1.5c-0.9-0.7-1.5-1.6-2-2.7c-0.1-0.2-0.2-0.5-0.3-0.7
			c-0.1-0.2-0.1-0.3-0.2-0.5c-0.1-0.2-0.1-0.4-0.2-0.5c0-0.2,0-0.4-0.1-0.5c-0.8-3.7,0.7-6.6,2.9-7.8c1.7-1,3.5-1,5.4-0.1
			c0.2,0.1,0.4,0.2,0.6,0.3c0.9,0.6,1.8,1.1,2.8,1.4c1.2,0.4,2.3,0.5,3.5,0.4c1.6-0.2,3-0.7,4.3-1.8c1-0.8,1.8-1.8,2.4-3
			c0.3-0.5,0.5-1,0.9-1.4c0.6-0.8,1.2-1.4,2-1.9c1.5-0.9,3.1-0.9,4.7-0.2c1.1,0.4,2,1.1,2.8,2.1c0.5,0.7,1,1.4,1.3,2.2
			c0.6,1.6,0.7,3.3,0.5,5c-0.1,0.7-0.3,1.3-0.5,1.9c-0.3,1-0.6,2-0.8,3.1c-0.2,1.2-0.2,2.4-0.1,3.6c0.1,0.9,0.3,1.8,0.7,2.7
			c0.6,1.7,1.6,3.2,2.8,4.5c0.6,0.7,1.2,1.3,1.9,1.8c0.7,0.6,1.4,1.3,1.9,2.1c0.6,0.9,1,1.9,1.3,3c0.8,3.4-0.4,6.5-2.7,7.9
			c-0.3,0.2-0.6,0.3-0.9,0.4c-0.1,0-0.1,0.1-0.2,0.1C728.9,930.8,728.6,930.9,728.3,930.9z"/>
	</g>
	<path class="st3" d="M716.6,885.9c-1.4,0.4-2.6,1.2-3.6,2.2c-0.9,0.9-1.7,2-2.3,3.1c-0.3,0.6-0.7,1.2-1.2,1.7
		c-0.9,0.9-1.9,1.5-3.1,1.7c-1.9,0.3-3.6-0.4-5.1-1.9c-0.9-0.9-1.5-1.9-2-3.1c-1-2.4-0.8-5.2,0.3-7.1c0.6-1,1.3-1.7,2.2-2.3
		c0.6-0.4,1.3-0.6,1.9-0.7c1.1-0.2,2.2,0,3.3,0.6c0.3,0.1,0.5,0.3,0.8,0.4c0.7,0.4,1.4,0.8,2.1,1.1c0.8,0.3,1.5,0.6,2.3,0.7
		c0.8,0.1,1.5,0.1,2.2,0c1.8-0.2,3.4-1.1,4.7-2.5c0.7-0.8,1.3-1.7,1.9-2.6c0-0.1,0.1-0.2,0.1-0.3c0.3-1.2,0.6-2.4,0.8-3.7
		c0.1-1,0.1-2.1,0-3.1c-0.2-1.4-0.6-2.8-1.3-4c-0.5-0.9-1.1-1.8-1.8-2.6c-0.8-0.9-1.6-1.7-2.4-2.4c-0.8-0.7-1.4-1.4-2-2.3
		c-0.6-1-1.1-2.1-1.3-3.3c-0.3-1.7-0.1-3.3,0.5-4.7c0.5-1.1,1.2-1.9,2.1-2.4c0.5-0.3,1.1-0.5,1.7-0.7c0.9-0.2,1.8-0.3,2.7-0.2
		c1.9,0.3,3.4,1.3,4.5,3.2c1.3,2.1,1.7,4.4,1.2,6.8c-0.1,0.6-0.3,1.1-0.5,1.6c-0.2,0.6-0.4,1.2-0.5,1.8c-0.4,1.5-0.5,3-0.3,4.6
		c0.1,1,0.3,2,0.7,3c0.9,2.6,2.5,4.6,4.5,6c1.5,1.1,3.2,1.7,4.9,1.8c1.1,0.1,2.2-0.1,3.2-0.5c1.8-0.7,3.3-2,4.4-3.8
		c0.2-0.3,0.3-0.5,0.5-0.8c0.4-0.7,0.8-1.3,1.2-1.9c0.5-0.6,1.1-1.1,1.7-1.4c0.5-0.3,1-0.4,1.6-0.5c0.6-0.1,1.2-0.1,1.7,0
		c1.6,0.3,3,1.1,4.1,2.6c0.7,0.9,1.2,1.8,1.6,2.9c0.2,0.7,0.4,1.3,0.4,2c0.1,1.5-0.1,3-0.7,4.3c-0.5,1.1-1.3,2-2.3,2.6
		c-1.5,0.9-3.2,1-4.9,0.4c-0.3-0.1-0.7-0.3-1-0.5c-0.9-0.5-1.8-1-2.8-1.3c-0.9-0.3-1.8-0.6-2.7-0.7c-0.9-0.1-1.8,0-2.7,0.4
		c-0.7,0.3-1.4,0.7-2,1.2c-0.7,0.6-1.4,1.2-2.1,1.9c-0.2,0.2-0.4,0.5-0.6,0.7c-0.1,0.1-0.1,0.2-0.2,0.3c-0.5,1.2-0.9,2.4-1.1,3.7
		c-0.2,1-0.3,2.1-0.3,3.1c0,1,0.2,2,0.5,3c0.3,1.1,0.8,2.1,1.4,3.1c0.6,0.9,1.3,1.7,2,2.5c0.6,0.6,1.2,1.1,1.8,1.6
		c1.1,0.9,1.9,2.1,2.5,3.5c0.5,1.1,0.7,2.3,0.8,3.5c0,1.1-0.2,2.1-0.7,2.9c-0.5,0.9-1.1,1.8-1.9,2.5c-0.6,0.5-1.2,0.9-1.9,1.1
		c-0.7,0.2-1.5,0.3-2.3,0.1c-1.7-0.4-3.2-1.3-4.5-2.9c-0.7-0.9-1.2-2-1.5-3.2c-0.4-1.6-0.3-3.1,0.1-4.5c0.1-0.2,0.2-0.5,0.2-0.7
		c0.5-1.5,0.9-3.1,1-4.8c0.1-1,0-2.1-0.2-3.1c-0.5-2.9-1.8-5.4-3.9-7.2c-1.7-1.4-3.5-2.3-5.5-2.7
		C718.4,885.6,717.5,885.7,716.6,885.9z"/>
</g>
</svg>
