<?xml version="1.0" encoding="utf-8"?>
<!-- Generator: Adobe Illustrator 25.2.1, SVG Export Plug-In . SVG Version: 6.00 Build 0)  -->
<svg version="1.1" id="Layer_1" xmlns="http://www.w3.org/2000/svg" xmlns:xlink="http://www.w3.org/1999/xlink" x="0px" y="0px"
	 viewBox="0 0 2092 342.6" style="enable-background:new 0 0 2092 342.6;" xml:space="preserve">
<style type="text/css">
	.st0{fill:#1E40AF;}
	.st1{fill:#3B82F6;}
</style>
<g>
	<path class="st0" d="M215.5,4.7c0.3,0.1,0.5,0.2,0.8,0.2c5.8,0.7,10.9,3,15.2,7c3.6,3.3,6,7.4,7.2,12.2c2.1,8.6-0.1,17.7-5.7,24.4
		c-2.9,3.5-5.5,7.1-7.6,11.2c-2,4-3.6,8.1-4.3,12.5c-1.3,7.6-0.4,14.9,2.8,21.9c1.6,3.4,3.5,6.6,5.9,9.4c3.4,4,7.6,7,12.4,9.2
		c4,1.8,8.1,3,12.4,3.6c1.9,0.3,3.7,0.4,5.6,0.5c1.1,0.1,2.3,0,3.4-0.2c3-0.4,5.9-1,8.8-1.9c5.6-1.8,10.6-4.7,14.6-9
		c3-3.3,6.7-5.3,10.9-6.5c3.4-0.9,6.8-1.2,10.2-0.9c3.8,0.3,7.5,1.2,11,2.8c4.7,2.2,8.2,5.7,10.5,10.3c1.4,2.9,2.2,6,2.6,9.2
		c0.3,2.6,0.3,5.2,0.2,7.9c-0.2,4.5-1.8,8.4-4.6,11.9c-4,4.9-9,8.2-15.1,9.8c-2.3,0.6-4.7,0.8-7.1,0.7c-6.3-0.3-11.7-2.6-16.6-6.5
		c-1.4-1.1-2.8-2.3-4.2-3.4c-3.6-2.7-7.4-5.1-11.6-6.9c-3.3-1.5-6.8-2.5-10.4-2.8c-3.8-0.4-7.5-0.1-11.2,0.9
		c-4.2,1.1-8.1,2.9-11.7,5.2c-3,1.9-5.9,4-8.6,6.3c-2.6,2.2-5.5,3.9-8.6,5.2c-3.8,1.5-7.8,2.1-11.9,1.8c-4.4-0.4-8.5-1.9-12.2-4.4
		c-5.1-3.6-8.7-8.2-10.5-14.2c-1.8-5.9-1.4-11.7,0.9-17.4c1.2-3.1,3-5.9,5.2-8.4c2-2.3,3.8-4.7,5.5-7.2c2.4-3.8,4.4-7.8,5.6-12.2
		c1-3.8,1.4-7.6,1.1-11.5c-0.3-4.3-1.5-8.4-3.2-12.4c-2-4.6-4.8-8.8-7.9-12.7c-0.3-0.4-0.7-0.8-1-1.2c-3.2-3.9-5.4-8.3-6.4-13.3
		c-1.4-7.4-0.2-14.2,4.3-20.3c3.9-5.3,9.3-8.6,15.7-10c1-0.2,2-0.3,2.9-0.5c0.2,0,0.4-0.1,0.6-0.2C212.7,4.7,214.1,4.7,215.5,4.7z"
		/>
	<path class="st0" d="M0,122.7c0.3-0.3,0.4-0.7,0.4-1.1c0.4-3.6,1.4-7,3.2-10.2c3.9-6.9,9.8-11.1,17.5-12.6
		c6.7-1.3,13.1-0.2,19.1,2.9c1.6,0.8,3.1,1.9,4.5,3.1c1.1,0.9,2.2,1.8,3.2,2.8c3.2,3.1,7,5.2,11.2,6.8c3.5,1.4,7.2,2.3,10.9,2.6
		c4.8,0.4,9.6-0.1,14.2-1.5c4.1-1.3,8-3.2,11.6-5.5c1.5-1,2.9-2,4.3-3c0.3-0.2,0.6-0.4,0.8-0.7c3.3-4.2,6.3-8.7,8.5-13.6
		c1.4-3,2.4-6.1,2.9-9.3c0.7-3.8,0.6-7.6-0.2-11.4c-0.8-4-2.3-7.8-4.3-11.4c-2.1-3.9-4.6-7.6-7.3-11.1c-0.8-1-1.5-2-2.2-3
		c-2.3-3.4-3.9-7.1-4.6-11.1c-1.8-10,2.1-19.5,10.2-25.5c3.7-2.7,7.7-4.3,12.2-4.9c6.3-0.8,12.2,0.3,17.6,3.7
		c6.6,4.1,10.5,10,11.7,17.7c1.2,7.9-0.9,15-5.6,21.5c-0.8,1.1-1.6,2.1-2.4,3.1c-2.8,3.6-5.3,7.5-7.3,11.6
		c-1.5,3.2-2.6,6.6-3.2,10.1c-0.8,4.8-0.4,9.6,0.9,14.2c1.1,3.9,2.9,7.5,5,11c1.9,3.1,4.1,6,6.5,8.8c2.2,2.5,3.9,5.3,5,8.5
		c2.4,6.8,1.9,13.5-1.2,20.1c-1.1,2.2-2.4,4.3-3.9,6.2c-0.4,0.5-0.9,1-1.4,1.5c-3.4,3.3-7.2,5.8-11.8,7.2c-8.2,2.4-15.5,0.8-22-4.6
		c-0.7-0.6-1.4-1.3-2.1-2c-5.9-5.7-12.9-9.4-20.9-11c-4-0.8-8.1-1-12.2-0.6c-9.8,1-18.2,5-25.2,11.8c-3.3,3.2-7.1,5.5-11.5,6.5
		c-5.5,1.3-10.8,0.8-15.9-1.5C7.8,145,2.6,138.5,0.7,129.4c-0.2-0.5-0.3-1.2-0.3-1.9c0-0.5-0.1-0.9-0.4-1.3C0,125,0,123.9,0,122.7z"
		/>
	<path class="st0" d="M332.9,219.7c-0.1,0.3-0.2,0.6-0.2,0.9c-0.1,4-1.3,7.8-3.4,11.2c-3.4,5.5-8.1,9.5-14.3,11.5
		c-6.7,2.2-13.2,1.7-19.6-1.3c-1.3-0.6-2.6-1.4-3.9-2.2c-1.1-0.7-2.1-1.5-3.1-2.5c-2.7-2.6-5.6-4.8-8.8-6.7
		c-3.8-2.3-7.8-3.9-12.2-4.7c-3-0.6-6.1-0.8-9.2-0.6c-5.3,0.3-10.4,1.6-15.4,3.5c-0.4,0.1-0.7,0.3-1,0.5c-4.7,3.1-8.9,6.7-12.5,11
		c-3.3,3.9-5.9,8.3-7.4,13.2c-1.4,4.5-1.9,9.1-1.5,13.8c0.5,5.2,2.1,10.1,4.5,14.8c2,4,4.5,7.7,7.4,11.1c1.6,1.9,3.1,4,4.2,6.2
		c2.3,4.6,3.3,9.5,2.8,14.6c-0.6,5.9-2.9,11-7,15.3c-4,4.3-9,6.9-14.9,7.8c-0.5,0.1-1.1,0.1-1.6,0.2c-0.2,0-0.4,0.1-0.6,0.2
		c-1.4,0-2.8,0-4.3,0c-0.2-0.1-0.5-0.2-0.7-0.2c-11.2-1.1-20.4-9.2-22.7-20.1c-1.9-8.7,0.2-16.5,5.8-23.3c1-1.2,2.1-2.4,3.1-3.7
		c3-3.8,5.5-7.9,7.2-12.4c1.2-3.2,2.1-6.4,2.4-9.8c0.5-4.8-0.1-9.4-1.6-14c-1.5-4.7-3.8-9-6.6-13c-1.2-1.7-2.5-3.4-3.8-5
		c-1.7-2.1-3.2-4.2-4.4-6.6c-2.2-4.3-3.1-8.9-2.7-13.7c0.3-3.6,1.5-6.9,3.3-10c1.6-2.8,3.7-5.2,6.1-7.3c0.6-0.6,1.3-1.1,1.8-1.8
		c0.5-0.7,1.2-1,2-1.1c0.5-0.1,1-0.2,1.4-0.5c2.7-1.5,5.6-2.6,8.7-3.1c4.5-0.8,8.9-0.5,13.1,1.4c2.5,1.1,4.8,2.7,6.6,4.7
		c5.9,6.4,13.3,10.1,21.8,11.7c3.8,0.7,7.6,0.9,11.4,0.6c8.3-0.7,15.9-3.5,22.5-8.7c1.4-1.1,2.6-2.3,3.8-3.5
		c3.6-3.8,8.1-5.8,13.2-6.4c5.2-0.6,10.1,0.3,14.8,2.5c4.4,2,8,5,10.7,9c2.2,3.3,3.5,6.9,4.1,10.8c0.1,0.6,0.1,1.2,0.1,1.8
		c0,0.3,0.1,0.7,0.2,1C332.9,217.8,332.9,218.8,332.9,219.7z"/>
	<path class="st0" d="M117.5,337.7c-0.2-0.1-0.5-0.2-0.7-0.2c-5.4-0.6-10.3-2.6-14.4-6.2c-4.9-4.3-7.9-9.7-8.9-16.2
		c-1.2-8.2,1.1-15.3,6.9-21.2c2.6-2.7,5-5.6,6.8-8.8c2.7-4.7,4.4-9.8,5-15.2c1.2-11.5-1.7-21.8-9.1-30.7c-5-6-11.3-9.9-18.7-12.2
		c-2.1-0.7-4.3-1.1-6.6-1.3c-1.5-0.2-3-0.4-4.4-0.5c-0.4,0-0.8-0.1-1.2-0.1c-5.3,0-10.3,1.3-15.1,3.5c-3.9,1.8-7.4,4.2-10.7,7
		c-0.9,0.8-1.8,1.6-2.8,2.3c-1.9,1.5-3.9,2.9-6,4c-4.5,2.2-9.2,3.1-14.1,2.4c-7.1-1-13-4.1-17.6-9.5c-2.7-3.1-4.4-6.7-5.2-10.7
		c-0.2-0.9-0.3-1.8-0.3-2.6c-0.1-0.6-0.2-1.3-0.4-1.9c0-0.6,0-1.3,0-1.9c0.2-0.6,0.4-1.2,0.4-1.9c1.1-13,10.3-21.1,20.1-23.2
		c7.9-1.7,15.3-0.2,21.8,4.8c0.6,0.5,1.2,1.1,1.8,1.6c3,2.8,6.2,5.2,9.8,7.1c4.2,2.3,8.7,3.8,13.5,4.4c6.5,0.8,13,0.4,19.2-1.8
		c4.9-1.7,9.2-4.4,13.1-7.8c1.6-1.4,3.3-2.7,5.1-3.9c3.2-2,6.5-3.5,10.2-4.3c6.9-1.5,13.3-0.3,19.1,3.5c3.8,2.4,6.8,5.6,8.9,9.5
		c1.4,2.7,2.3,5.6,2.6,8.6c0.7,6-0.7,11.6-3.5,16.8c-1.1,2.1-2.5,4.1-4.1,6c-2.5,2.9-4.7,6.1-6.5,9.4c-2,3.7-3.5,7.7-4.3,11.9
		c-0.6,3.2-0.7,6.4-0.4,9.6c0.6,6.3,2.8,12.1,6.2,17.5c1.7,2.7,3.6,5.3,5.7,7.7c2.3,2.6,4.1,5.6,5.4,8.9c1.4,3.6,2,7.3,1.8,11.2
		c-0.7,12.1-8.9,21-19.5,23.6c-1.3,0.3-2.6,0.6-4,0.7c-0.2,0-0.5,0.1-0.7,0.2C120.2,337.7,118.9,337.7,117.5,337.7z"/>
</g>
<path class="st1" d="M121,178.2c-6.2,0.1-11.7,1.5-16.9,3.9c-4.6,2.2-8.8,5-12.7,8.3c-2.1,1.8-4.3,3.3-6.8,4.5
	c-4.5,2.2-9.4,3.2-14.4,2.6c-7.7-0.9-13.8-4.6-18.3-11c-2.5-3.7-4.1-7.7-4.6-12.1c-1.1-8.8,2.4-17.8,9-23.2
	c3.3-2.7,7.1-4.5,11.3-5.5c2.8-0.7,5.7-0.9,8.6-0.6c4.6,0.5,8.8,2.1,12.5,5c0.9,0.7,1.7,1.4,2.5,2.1c2.3,1.9,4.6,3.8,7.1,5.5
	c2.7,1.8,5.5,3.4,8.6,4.5c2.9,1,5.9,1.7,8.9,2c7.6,0.9,14.8-0.6,21.7-4c3.8-1.9,7.2-4.2,10.4-6.9c0.3-0.2,0.5-0.5,0.7-0.8
	c2.7-3.6,5.1-7.3,7.1-11.4c1.6-3.3,2.8-6.7,3.5-10.2c0.9-4.9,0.7-9.7-0.6-14.4c-1-3.5-2.5-6.9-4.3-10.1c-2-3.6-4.4-7-7-10.2
	c-2.3-2.9-4.1-6-5.4-9.4c-1.4-4-2-8.1-1.6-12.3c0.6-5.9,3.1-11,7.4-15.2c3.1-3,6.7-5.1,10.9-6.1c2.4-0.6,4.9-0.8,7.4-0.8
	c3.8,0,7.4,0.7,10.9,1.9c7.1,2.6,12,7.5,14.4,14.7c2.8,8.3,1.8,16.2-2.9,23.5c-1.1,1.7-2.4,3.3-3.7,4.8c-1.5,1.7-2.9,3.5-4.2,5.4
	c-3.1,4.6-5.2,9.6-6.3,15c-0.7,3.5-0.9,7-0.6,10.5c0.8,9.4,4.7,17.4,11.3,24.1c4.9,5.1,10.8,8.6,17.6,10.6c4.4,1.3,8.9,1.7,13.4,1.3
	c8-0.7,15.2-3.6,21.6-8.5c0.9-0.7,1.8-1.5,2.7-2.2c2.2-1.9,4.5-3.7,7-5.1c2.6-1.5,5.4-2.6,8.4-3.2c2.3-0.4,4.7-0.5,7-0.2
	c2.4,0.3,4.7,0.8,6.9,1.7c6.1,2.3,10.6,6.4,13.4,12.2c1.7,3.4,2.7,7.1,3.1,10.9c0.2,2.4,0,4.8-0.6,7.1c-1.2,5.2-3.7,9.7-7.5,13.5
	c-3.3,3.3-7.4,5.4-11.9,6.5c-7.1,1.7-13.8,0.5-20-3.3c-1.2-0.7-2.4-1.6-3.5-2.5c-3.1-2.5-6.3-4.9-9.7-6.9c-3.1-1.9-6.4-3.5-9.9-4.7
	c-3.7-1.2-7.4-1.6-11.2-1.3c-3.2,0.2-6.3,0.9-9.4,2c-3.6,1.2-7.1,2.8-10.5,4.5c-1.1,0.5-2.1,1.1-3.2,1.7c-0.4,0.2-0.7,0.5-1,0.8
	c-3.2,3.5-6.1,7.2-8.6,11.3c-1.9,3.2-3.5,6.5-4.5,10.1c-1,3.3-1.4,6.7-1.3,10.2c0.1,3.9,1,7.7,2.4,11.4c1.4,3.6,3.2,7,5.3,10.2
	c1.6,2.5,3.4,4.8,5.3,7.1c3.4,4,5.3,8.7,6.1,13.8c0.6,4.2,0.4,8.3-0.9,12.3c-1.1,3.6-3.1,6.7-6,9.1c-3.1,2.6-6.5,4.9-10.3,6.5
	c-2.9,1.2-5.9,1.9-9,2c-3.2,0.1-6.2-0.4-9.2-1.6c-6.6-2.8-11.5-7.3-14.6-13.8c-1.8-3.7-2.6-7.7-2.4-11.8c0.2-5.5,2.1-10.4,5.3-14.8
	c0.5-0.7,1.1-1.5,1.7-2.2c3.8-4.5,7-9.4,9.2-14.9c1.4-3.3,2.4-6.8,2.8-10.3c1.3-10.2-1.2-19.3-7.6-27.3c-5-6.3-11.4-10.9-19-13.8
	C128.3,178.7,124.6,178.3,121,178.2z"/>
<g>
	<path class="st0" d="M447.2,235.1v23c0,21.9,5.4,32,20,32c14.7,0,18.2-15,18.2-30.7c0-31.4-5.9-40.4-39.8-68.8
		c-37.4-31.7-56.7-50.5-56.7-99.4c0-47.5,15.7-91.2,78.7-91.2c66.8,0,76.7,45.6,76.7,83.6v19.1H484V82.8c0-20.2-3.3-30.1-15.9-30.1
		c-11.8,0-15.6,10.1-15.6,29c0,20,3.6,29.9,31.1,51.3c48.9,38.4,66.4,60,66.4,114.7c0,52-17.8,94.9-83.8,94.9
		c-63.4,0-81.5-38.2-81.5-87.5v-19.9h62.5V235.1z"/>
	<path class="st0" d="M609.7,61.7h-48.4V5.2h160.9v56.5h-48.7v275.8h-63.8L609.7,61.7L609.7,61.7z"/>
	<path class="st0" d="M808.7,193.1v144.5h-63.8V5.2h82.9c55.7,0,83.2,24.5,83.2,82.6v12c0,47.4-18.9,61.4-33.2,68.2
		c20.7,10,30.4,25.2,30.4,71.5c0,32.1-0.5,80.6,2.3,98.1h-61.8c-4.1-15-3.8-58.3-3.8-100.7c0-37.4-4.3-43.8-28.6-43.8H808.7
		L808.7,193.1z M808.9,142.7h7.9c21.3,0,30.1-6.7,30.1-37.7V89c0-22.3-4.5-33.4-28-33.4h-10V142.7z"/>
	<path class="st0" d="M1004,258.4l-8.2,79.1h-65.2l47-332.3h95.3l48.1,332.3h-66.5l-9.2-79.1H1004z M1039.9,202.1
		c-4.7-42.5-11.3-107.2-14.5-139h-2.5c-1.1,23.2-9,97.9-13.4,139H1039.9z"/>
	<path class="st0" d="M1157,61.7h-48.4V5.2h160.9v56.5h-48.7v275.8H1157V61.7z"/>
	<path class="st0" d="M1331.6,258.4l-8.2,79.1h-65.2l47-332.3h95.3l48.1,332.3h-66.5l-9.2-79.1H1331.6z M1367.6,202.1
		c-4.7-42.5-11.3-107.2-14.5-139h-2.5c-1.1,23.2-9,97.9-13.4,139H1367.6z"/>
</g>
<g>
	<path class="st1" d="M1492.5,4.7v332.6h-19.1V4.7H1492.5z"/>
	<path class="st1" d="M1546.1,337.3V4.7h24.7c22.7,76.5,75.7,261.3,83.1,298.2h1c-1.5-48.6-2.5-95.4-2.5-149.2V4.7h19.1v332.6h-24.1
		c-25.1-85.6-76.2-269.4-85.5-308.6h-0.5c2,39.8,3.9,101.2,3.9,161.5v147.2h-19.2V337.3z"/>
	<path class="st1" d="M1754.3,22.3H1700V4.7h126.7v17.6h-53.3v315.1h-19.1L1754.3,22.3L1754.3,22.3z"/>
	<path class="st1" d="M1948.5,166.9h-76.1v152.8h85.1l-3.1,17.6h-101.2V4.7h99.7v17.6h-80.5v127.1h76.1V166.9z"/>
	<path class="st1" d="M1989.2,4.7h19.1v315.1h83.7l-3.5,17.6h-99.3V4.7z"/>
</g>
</svg>
